<svg xmlns="http://www.w3.org/2000/svg" width="16.008" height="9.36" viewBox="0 0 16.008 9.36">
  <g id="Group_5983" data-name="Group 5983" transform="translate(0 9.36) rotate(-90)">
    <path id="Path_5948" data-name="Path 5948" d="M3397.779,26.418c.113.049.23.093.34.149a1.331,1.331,0,0,1,.272,2.189q-2.118,2.129-4.249,4.246c-.464.463-.931.924-1.419,1.409.1.1.181.195.267.28q2.689,2.687,5.381,5.371a1.341,1.341,0,0,1,.42,1.388,1.326,1.326,0,0,1-2.109.683,3.574,3.574,0,0,1-.3-.277l-6.377-6.366a1.351,1.351,0,0,1,0-2.131q3.121-3.117,6.25-6.228a8.124,8.124,0,0,1,.964-.713Z" transform="translate(-3389.483 -26.418)" fill="#bababa"/>
  </g>
</svg>
